<svg viewBox="0 0 64 64" fill="none" xmlns="http://www.w3.org/2000/svg">
<path d="M48 26.6613H16C15.2928 26.6613 14.6145 26.3804 14.1144 25.8803C13.6143 25.3802 13.3334 24.7019 13.3334 23.9947C13.3334 23.2874 13.6143 22.6091 14.1144 22.1091C14.6145 21.609 15.2928 21.328 16 21.328H48C48.7073 21.328 49.3856 21.609 49.8857 22.1091C50.3858 22.6091 50.6667 23.2874 50.6667 23.9947C50.6667 24.7019 50.3858 25.3802 49.8857 25.8803C49.3856 26.3804 48.7073 26.6613 48 26.6613ZM48 42.6613H16C15.2928 42.6613 14.6145 42.3804 14.1144 41.8803C13.6143 41.3802 13.3334 40.7019 13.3334 39.9947C13.3334 39.2874 13.6143 38.6091 14.1144 38.1091C14.6145 37.609 15.2928 37.328 16 37.328H48C48.7073 37.328 49.3856 37.609 49.8857 38.1091C50.3858 38.6091 50.6667 39.2874 50.6667 39.9947C50.6667 40.7019 50.3858 41.3802 49.8857 41.8803C49.3856 42.3804 48.7073 42.6613 48 42.6613Z" fill="#3E3E3E"/>
</svg>
