<svg width="256" height="256" viewBox="0 0 64 64" fill="none" xmlns="http://www.w3.org/2000/svg">
<path d="M24 56V48H5.33331V42.6667H24C25.4666 42.6667 26.7226 43.1893 27.768 44.2347C28.8133 45.28 29.3351 46.5351 29.3333 48V56H24ZM34.6666 56V48C34.6666 46.5333 35.1893 45.2773 36.2346 44.232C37.28 43.1867 38.5351 42.6649 40 42.6667H58.6666V48H40V56H34.6666ZM16 40C13.7778 40 11.8889 39.2222 10.3333 37.6667C8.77776 36.1111 7.99998 34.2222 7.99998 32V21.3333H56V32C56 34.2222 55.2222 36.1111 53.6666 37.6667C52.1111 39.2222 50.2222 40 48 40H16ZM7.99998 18.6667V13.3333H24V10.6667C24 9.91111 24.256 9.27733 24.768 8.76533C25.28 8.25333 25.9129 7.99822 26.6666 7.99999H37.3333C38.0889 7.99999 38.7226 8.25599 39.2346 8.76799C39.7466 9.27999 40.0018 9.91288 40 10.6667V13.3333H56V18.6667H7.99998Z" fill="#3E3E3E"/>
</svg>
