<svg  viewBox="0 0 64 64" fill="none" xmlns="http://www.w3.org/2000/svg">
<path d="M57 32C57 32.7956 56.6839 33.5587 56.1213 34.1213C55.5587 34.6839 54.7956 35 54 35H35V54C35 54.7956 34.6839 55.5587 34.1213 56.1213C33.5587 56.6839 32.7956 57 32 57C31.2044 57 30.4413 56.6839 29.8787 56.1213C29.3161 55.5587 29 54.7956 29 54V35H10C9.20435 35 8.44129 34.6839 7.87868 34.1213C7.31607 33.5587 7 32.7956 7 32C7 31.2044 7.31607 30.4413 7.87868 29.8787C8.44129 29.3161 9.20435 29 10 29H29V10C29 9.20435 29.3161 8.44129 29.8787 7.87868C30.4413 7.31607 31.2044 7 32 7C32.7956 7 33.5587 7.31607 34.1213 7.87868C34.6839 8.44129 35 9.20435 35 10V29H54C54.7956 29 55.5587 29.3161 56.1213 29.8787C56.6839 30.4413 57 31.2044 57 32Z" fill="#3E3E3E"/>
</svg>
